<svg id="svg" version="1.1" xmlns="http://www.w3.org/2000/svg" xmlns:xlink="http://www.w3.org/1999/xlink" width="400" height="400" viewBox="0, 0, 400,400"><g id="svgg"><path id="path0" d="M114.000 0.230 C 112.194 0.918,111.253 1.553,109.900 2.998 C 109.075 3.879,108.400 4.915,108.400 5.300 C 108.400 5.685,108.220 6.000,108.000 6.000 C 107.780 6.000,107.600 6.360,107.600 6.800 C 107.600 7.240,107.420 7.600,107.200 7.600 C 106.975 7.600,106.800 8.725,106.800 10.176 C 106.800 11.593,106.620 12.864,106.400 13.000 C 106.150 13.155,106.000 17.137,106.000 23.624 C 106.000 30.275,106.144 34.000,106.400 34.000 C 106.637 34.000,106.800 35.459,106.800 37.576 C 106.800 39.543,106.980 41.264,107.200 41.400 C 107.420 41.536,107.600 42.717,107.600 44.024 C 107.600 45.331,107.754 46.400,107.941 46.400 C 108.129 46.400,108.397 47.759,108.538 49.420 C 108.678 51.081,108.975 52.779,109.197 53.194 C 109.418 53.608,109.600 54.489,109.600 55.150 C 109.600 55.812,109.780 56.464,110.000 56.600 C 110.220 56.736,110.400 57.287,110.400 57.824 C 110.400 58.361,110.580 58.800,110.800 58.800 C 111.020 58.800,111.200 59.340,111.200 60.000 C 111.200 60.660,111.380 61.200,111.600 61.200 C 111.820 61.200,112.000 61.740,112.000 62.400 C 112.000 63.060,112.180 63.600,112.400 63.600 C 112.620 63.600,112.800 64.140,112.800 64.800 C 112.800 65.460,112.980 66.000,113.200 66.000 C 113.420 66.000,113.600 66.360,113.600 66.800 C 113.600 67.240,113.780 67.600,114.000 67.600 C 114.220 67.600,114.400 67.947,114.400 68.372 C 114.400 69.115,114.795 69.145,124.726 69.156 C 130.405 69.163,135.310 69.260,135.626 69.373 C 135.942 69.486,137.910 69.769,140.000 70.002 C 145.632 70.630,148.159 71.058,154.300 72.422 C 155.345 72.654,156.787 72.944,157.504 73.066 C 158.221 73.188,158.906 73.449,159.027 73.644 C 159.148 73.840,159.629 74.000,160.095 74.000 C 160.996 74.000,163.339 74.665,164.495 75.249 C 164.877 75.442,165.541 75.600,165.971 75.600 C 166.401 75.600,166.864 75.780,167.000 76.000 C 167.136 76.220,167.651 76.400,168.144 76.400 C 168.637 76.400,169.211 76.543,169.420 76.718 C 169.629 76.893,170.520 77.265,171.400 77.545 C 173.139 78.097,173.644 78.297,176.496 79.560 C 177.538 80.022,178.501 80.400,178.636 80.400 C 179.357 80.400,194.543 88.180,195.800 89.194 C 198.521 91.388,201.397 91.714,202.800 89.988 C 202.910 89.852,203.270 89.624,203.600 89.480 C 203.930 89.336,205.100 88.674,206.200 88.009 C 208.645 86.530,219.125 81.258,221.600 80.262 C 222.590 79.864,223.805 79.372,224.300 79.169 C 224.795 78.966,225.695 78.599,226.300 78.353 C 226.905 78.108,227.713 77.748,228.095 77.553 C 228.477 77.359,229.141 77.200,229.571 77.200 C 230.001 77.200,230.464 77.020,230.600 76.800 C 230.736 76.580,231.276 76.400,231.800 76.400 C 232.324 76.400,232.864 76.220,233.000 76.000 C 233.136 75.780,233.676 75.600,234.200 75.600 C 234.724 75.600,235.264 75.420,235.400 75.200 C 235.536 74.980,236.076 74.800,236.600 74.800 C 237.124 74.800,237.652 74.640,237.773 74.444 C 237.894 74.249,238.579 73.995,239.296 73.881 C 240.013 73.768,241.320 73.464,242.200 73.207 C 245.894 72.128,253.022 70.744,258.800 69.985 C 264.318 69.259,274.832 68.790,279.892 69.043 C 284.851 69.290,285.199 69.260,285.421 68.554 C 285.552 68.139,285.825 67.487,286.029 67.105 C 286.233 66.723,286.400 66.138,286.400 65.805 C 286.400 65.472,286.580 65.200,286.800 65.200 C 287.020 65.200,287.200 64.761,287.200 64.224 C 287.200 63.687,287.380 63.136,287.600 63.000 C 287.820 62.864,288.000 62.324,288.000 61.800 C 288.000 61.276,288.180 60.736,288.400 60.600 C 288.620 60.464,288.800 59.823,288.800 59.176 C 288.800 58.529,288.960 58.000,289.156 58.000 C 289.352 58.000,289.600 57.415,289.707 56.700 C 289.814 55.985,290.198 54.339,290.561 53.042 C 290.923 51.745,291.332 49.360,291.469 47.742 C 291.605 46.124,291.871 44.800,292.059 44.800 C 292.246 44.800,292.400 43.641,292.400 42.224 C 292.400 40.807,292.580 39.536,292.800 39.400 C 293.030 39.258,293.200 37.137,293.200 34.400 C 293.200 31.663,293.370 29.542,293.600 29.400 C 293.837 29.254,294.000 26.796,294.000 23.376 C 294.000 19.792,293.848 17.600,293.600 17.600 C 293.359 17.600,293.200 15.933,293.200 13.400 C 293.200 10.867,293.041 9.200,292.800 9.200 C 292.580 9.200,292.400 8.784,292.400 8.275 C 292.400 6.603,289.800 2.000,288.856 2.000 C 288.605 2.000,288.400 1.820,288.400 1.600 C 288.400 1.380,288.145 1.200,287.833 1.200 C 287.522 1.200,287.191 0.975,287.099 0.700 C 286.865 0.006,265.004 0.036,264.309 0.731 C 264.051 0.989,262.987 1.200,261.944 1.200 C 260.901 1.200,259.936 1.380,259.800 1.600 C 259.664 1.820,258.753 2.000,257.776 2.000 C 256.799 2.000,256.000 2.180,256.000 2.400 C 256.000 2.620,255.280 2.800,254.400 2.800 C 253.520 2.800,252.800 2.980,252.800 3.200 C 252.800 3.420,252.181 3.600,251.424 3.600 C 250.667 3.600,249.936 3.780,249.800 4.000 C 249.664 4.220,249.023 4.400,248.376 4.400 C 247.729 4.400,247.200 4.580,247.200 4.800 C 247.200 5.020,246.660 5.200,246.000 5.200 C 245.340 5.200,244.800 5.380,244.800 5.600 C 244.800 5.820,244.361 6.000,243.824 6.000 C 243.287 6.000,242.736 6.180,242.600 6.400 C 242.464 6.620,241.913 6.800,241.376 6.800 C 240.839 6.800,240.400 6.980,240.400 7.200 C 240.400 7.420,239.961 7.600,239.424 7.600 C 238.887 7.600,238.336 7.780,238.200 8.000 C 238.064 8.220,237.676 8.400,237.337 8.400 C 236.998 8.400,236.064 8.689,235.260 9.043 C 232.559 10.231,228.602 12.182,228.400 12.424 C 228.290 12.556,227.615 12.919,226.900 13.230 C 226.185 13.541,225.600 13.931,225.600 14.098 C 225.600 14.264,225.364 14.400,225.075 14.400 C 224.787 14.400,224.164 14.760,223.692 15.200 C 223.220 15.640,222.596 16.000,222.305 16.000 C 222.014 16.000,221.517 16.360,221.200 16.800 C 220.883 17.240,220.375 17.600,220.072 17.600 C 219.769 17.600,219.017 18.140,218.400 18.800 C 217.783 19.460,217.108 20.000,216.900 20.000 C 216.608 20.000,211.419 24.676,209.490 26.678 C 206.643 29.632,204.400 32.204,204.400 32.514 C 204.400 32.730,204.084 33.197,203.697 33.553 C 203.311 33.909,202.740 34.695,202.430 35.300 C 202.119 35.905,201.715 36.400,201.532 36.400 C 201.350 36.400,201.194 36.625,201.187 36.900 C 201.132 39.054,198.003 38.355,198.000 36.188 C 198.000 35.962,197.640 35.517,197.200 35.200 C 196.760 34.883,196.400 34.375,196.400 34.072 C 196.400 33.769,195.860 33.017,195.200 32.400 C 194.540 31.783,194.000 31.071,194.000 30.817 C 194.000 30.233,184.539 20.800,183.954 20.800 C 183.716 20.800,183.017 20.260,182.400 19.600 C 181.783 18.940,181.031 18.400,180.728 18.400 C 180.425 18.400,179.917 18.040,179.600 17.600 C 179.283 17.160,178.743 16.800,178.400 16.800 C 178.057 16.800,177.517 16.440,177.200 16.000 C 176.883 15.560,176.386 15.200,176.095 15.200 C 175.804 15.200,175.206 14.864,174.766 14.454 C 174.325 14.043,173.118 13.278,172.082 12.754 C 171.047 12.229,170.140 11.665,170.067 11.500 C 169.993 11.335,169.588 11.200,169.167 11.200 C 168.745 11.200,168.400 11.020,168.400 10.800 C 168.400 10.580,168.164 10.400,167.875 10.400 C 167.586 10.400,166.417 9.950,165.277 9.400 C 164.137 8.850,162.753 8.400,162.202 8.400 C 161.651 8.400,161.200 8.220,161.200 8.000 C 161.200 7.780,160.840 7.600,160.400 7.600 C 159.960 7.600,159.600 7.420,159.600 7.200 C 159.600 6.980,159.060 6.800,158.400 6.800 C 157.740 6.800,157.200 6.620,157.200 6.400 C 157.200 6.180,156.750 6.000,156.200 6.000 C 155.650 6.000,155.200 5.820,155.200 5.600 C 155.200 5.380,154.660 5.200,154.000 5.200 C 153.340 5.200,152.800 5.020,152.800 4.800 C 152.800 4.580,152.080 4.400,151.200 4.400 C 150.320 4.400,149.600 4.220,149.600 4.000 C 149.600 3.780,149.060 3.600,148.400 3.600 C 147.740 3.600,147.200 3.420,147.200 3.200 C 147.200 2.980,146.491 2.800,145.624 2.800 C 144.757 2.800,143.936 2.620,143.800 2.400 C 143.664 2.180,142.753 2.000,141.776 2.000 C 140.799 2.000,140.000 1.820,140.000 1.600 C 140.000 1.380,139.025 1.200,137.833 1.200 C 136.626 1.200,135.602 1.007,135.521 0.764 C 135.367 0.300,115.134 -0.202,114.000 0.230 " stroke="none" fill="#04cfb7" fill-rule="evenodd"></path><path id="path1" d="M275.600 69.642 C 263.004 70.041,258.109 70.586,247.000 72.829 C 245.900 73.052,244.413 73.336,243.696 73.461 C 242.979 73.586,242.294 73.849,242.173 74.044 C 242.052 74.240,241.344 74.400,240.600 74.400 C 239.856 74.400,239.136 74.580,239.000 74.800 C 238.864 75.020,238.324 75.200,237.800 75.200 C 237.276 75.200,236.736 75.380,236.600 75.600 C 236.464 75.820,236.001 76.000,235.571 76.000 C 235.141 76.000,234.477 76.158,234.095 76.351 C 233.713 76.544,232.680 76.916,231.800 77.177 C 230.169 77.662,228.749 78.214,227.505 78.847 C 227.123 79.041,226.633 79.200,226.415 79.200 C 226.198 79.200,224.841 79.740,223.400 80.400 C 221.959 81.060,220.699 81.600,220.600 81.600 C 219.828 81.600,206.508 88.499,204.450 89.964 C 203.805 90.424,203.167 90.800,203.033 90.800 C 202.899 90.800,202.164 91.205,201.399 91.700 L 200.010 92.600 200.005 125.900 C 200.002 144.215,199.859 159.200,199.686 159.200 C 199.514 159.200,198.389 158.190,197.186 156.955 C 186.712 146.198,170.779 156.516,177.272 169.852 C 179.851 175.149,195.239 188.400,198.811 188.400 L 200.000 188.400 200.000 200.000 L 200.000 211.600 99.979 211.600 L -0.042 211.600 0.042 214.216 C 0.089 215.654,0.287 216.930,0.483 217.051 C 0.679 217.172,0.605 217.560,0.319 217.912 C -0.070 218.393,-0.075 218.478,0.300 218.253 C 0.610 218.067,0.800 218.177,0.800 218.543 C 0.800 218.868,0.622 219.193,0.405 219.267 C 0.169 219.346,0.240 219.843,0.581 220.500 C 0.912 221.137,0.981 221.600,0.746 221.600 C 0.232 221.600,0.443 224.100,0.991 224.494 C 1.251 224.680,1.217 224.790,0.900 224.794 C 0.625 224.797,0.400 224.991,0.400 225.224 C 0.400 225.457,0.598 225.525,0.840 225.375 C 1.158 225.179,1.161 225.326,0.848 225.910 C 0.521 226.521,0.550 226.826,0.967 227.173 C 1.270 227.424,1.430 227.964,1.323 228.374 C 1.216 228.783,1.331 229.497,1.578 229.959 C 1.876 230.516,1.888 230.800,1.614 230.800 C 1.114 230.800,1.241 231.683,1.800 232.094 C 2.048 232.276,2.010 232.390,1.700 232.394 C 1.425 232.397,1.200 232.580,1.200 232.800 C 1.200 233.020,1.490 233.200,1.843 233.200 C 2.329 233.200,2.426 233.444,2.236 234.198 L 1.986 235.196 36.493 235.298 L 71.000 235.400 71.200 254.200 C 71.399 272.901,71.405 273.011,72.345 275.091 C 76.544 284.378,89.793 284.322,94.080 275.000 C 94.988 273.025,95.003 272.761,95.200 254.200 L 95.400 235.400 112.500 235.296 L 129.600 235.191 129.600 241.249 C 129.600 252.972,133.592 258.768,141.685 258.794 C 149.650 258.819,153.262 253.964,153.586 242.800 L 153.800 235.400 170.885 235.296 L 187.970 235.191 188.085 254.096 C 188.197 272.435,188.226 273.055,189.055 274.849 C 190.807 278.639,194.452 281.482,198.200 281.985 L 199.800 282.200 199.901 341.162 L 200.003 400.125 213.692 399.891 C 222.884 399.735,227.428 399.517,227.524 399.229 C 227.603 398.990,228.681 398.800,229.953 398.800 C 231.229 398.800,232.478 398.579,232.779 398.300 C 233.210 397.900,233.261 397.900,233.035 398.300 C 232.702 398.890,233.438 398.986,233.800 398.400 C 233.936 398.180,235.207 398.000,236.624 398.000 C 238.075 398.000,239.200 397.825,239.200 397.600 C 239.200 397.380,239.999 397.200,240.976 397.200 C 241.953 397.200,242.864 397.020,243.000 396.800 C 243.136 396.580,244.137 396.400,245.224 396.400 C 246.311 396.400,247.200 396.220,247.200 396.000 C 247.200 395.780,248.100 395.600,249.200 395.600 C 250.300 395.600,251.200 395.420,251.200 395.200 C 251.200 394.980,251.920 394.800,252.800 394.800 C 253.680 394.800,254.400 394.620,254.400 394.400 C 254.400 394.180,255.030 394.000,255.800 394.000 C 256.570 394.000,257.200 393.820,257.200 393.600 C 257.200 393.380,257.920 393.200,258.800 393.200 C 259.680 393.200,260.400 393.020,260.400 392.800 C 260.400 392.580,261.019 392.400,261.776 392.400 C 262.533 392.400,263.264 392.220,263.400 392.000 C 263.536 391.780,264.078 391.600,264.605 391.600 C 265.131 391.600,265.976 391.435,266.481 391.233 C 268.325 390.495,269.012 390.268,269.600 390.200 C 270.313 390.118,271.533 389.684,272.495 389.171 C 272.877 388.967,273.541 388.800,273.971 388.800 C 274.401 388.800,274.842 388.656,274.951 388.479 C 275.060 388.303,276.061 387.910,277.175 387.607 C 278.289 387.304,279.200 386.908,279.200 386.728 C 279.200 386.547,279.663 386.400,280.229 386.400 C 280.794 386.400,281.529 386.128,281.861 385.796 C 282.193 385.464,282.630 385.295,282.832 385.420 C 283.035 385.545,283.200 385.457,283.200 385.224 C 283.200 384.991,283.639 384.800,284.176 384.800 C 284.713 384.800,285.264 384.620,285.400 384.400 C 285.536 384.180,286.007 384.000,286.447 384.000 C 286.887 384.000,287.155 383.850,287.042 383.667 C 286.929 383.484,287.728 383.092,288.818 382.795 C 289.908 382.498,290.800 382.108,290.800 381.928 C 290.800 381.747,291.160 381.600,291.600 381.600 C 292.040 381.600,292.400 381.420,292.400 381.200 C 292.400 380.980,292.771 380.800,293.224 380.800 C 293.677 380.800,293.936 380.620,293.800 380.400 C 293.664 380.180,293.936 380.000,294.405 380.000 C 294.874 380.000,295.529 379.728,295.861 379.396 C 296.193 379.064,296.630 378.895,296.832 379.020 C 297.035 379.145,297.200 379.101,297.200 378.921 C 297.200 378.556,299.634 377.372,300.100 377.511 C 300.265 377.560,300.400 377.464,300.400 377.298 C 300.400 377.131,300.985 376.737,301.700 376.420 C 303.813 375.486,308.589 372.716,308.734 372.341 C 308.808 372.151,309.033 372.097,309.234 372.221 C 309.435 372.345,309.600 372.257,309.600 372.024 C 309.600 371.791,309.920 371.600,310.312 371.600 C 310.703 371.600,311.276 371.250,311.585 370.821 C 311.893 370.393,312.278 370.125,312.441 370.225 C 312.603 370.325,313.052 370.091,313.439 369.704 C 313.826 369.317,314.246 368.984,314.371 368.965 C 315.052 368.863,315.973 368.279,315.827 368.043 C 315.734 367.893,316.230 367.519,316.929 367.212 C 317.628 366.906,318.410 366.372,318.668 366.027 C 318.925 365.682,319.285 365.399,319.468 365.397 C 320.071 365.392,321.600 364.134,321.331 363.864 C 321.186 363.719,321.455 363.600,321.930 363.600 C 322.405 363.600,323.018 363.240,323.293 362.800 C 323.568 362.360,323.981 362.000,324.212 362.000 C 324.443 362.000,325.428 361.280,326.400 360.400 C 327.372 359.520,328.411 358.800,328.708 358.800 C 329.004 358.800,329.136 358.620,329.000 358.400 C 328.864 358.180,328.965 358.000,329.224 358.000 C 329.483 358.000,330.284 357.505,331.004 356.900 C 333.142 355.104,334.140 354.400,334.548 354.400 C 334.760 354.400,334.824 354.291,334.691 354.158 C 334.447 353.914,335.157 353.202,337.837 351.000 C 339.847 349.349,343.705 345.466,344.244 344.552 C 344.488 344.139,344.764 343.890,344.857 344.000 C 345.097 344.283,348.000 341.318,348.000 340.790 C 348.000 340.549,348.180 340.464,348.400 340.600 C 348.620 340.736,348.800 340.680,348.800 340.475 C 348.800 340.270,349.970 338.880,351.400 337.385 C 352.830 335.890,354.000 334.517,354.000 334.334 C 354.000 334.151,354.675 333.298,355.500 332.439 C 357.210 330.659,358.188 329.349,357.962 329.142 C 357.876 329.064,358.570 328.213,359.503 327.252 C 360.437 326.290,361.200 325.347,361.200 325.156 C 361.200 324.783,362.073 323.646,363.476 322.192 C 363.957 321.693,364.247 321.180,364.119 321.052 C 363.990 320.924,364.181 320.705,364.543 320.567 C 364.904 320.428,365.200 319.963,365.200 319.534 C 365.200 319.104,365.364 318.854,365.565 318.979 C 365.766 319.103,366.170 318.664,366.463 318.002 C 366.756 317.341,367.131 316.800,367.298 316.800 C 367.464 316.800,367.600 316.429,367.600 315.976 C 367.600 315.523,367.780 315.264,368.000 315.400 C 368.220 315.536,368.400 315.367,368.400 315.024 C 368.400 314.681,368.760 314.040,369.200 313.600 C 369.640 313.160,370.000 312.530,370.000 312.200 C 370.000 311.870,370.180 311.600,370.400 311.600 C 370.620 311.600,370.800 311.330,370.800 311.000 C 370.800 310.670,370.991 310.400,371.224 310.400 C 371.457 310.400,371.548 310.239,371.426 310.042 C 371.304 309.845,371.474 309.581,371.802 309.454 C 372.131 309.328,372.400 308.849,372.400 308.389 C 372.400 307.929,372.580 307.664,372.800 307.800 C 373.020 307.936,373.200 307.677,373.200 307.224 C 373.200 306.771,373.356 306.400,373.546 306.400 C 373.736 306.400,374.201 305.590,374.579 304.600 C 374.957 303.610,375.431 302.800,375.633 302.800 C 375.835 302.800,376.000 302.440,376.000 302.000 C 376.000 301.560,376.180 301.200,376.400 301.200 C 376.620 301.200,376.800 300.966,376.800 300.680 C 376.800 299.944,377.741 298.007,378.100 298.003 C 378.265 298.001,378.400 297.640,378.400 297.200 C 378.400 296.760,378.580 296.400,378.800 296.400 C 379.020 296.400,379.200 296.166,379.200 295.880 C 379.200 295.144,380.141 293.207,380.500 293.203 C 380.665 293.201,380.800 292.966,380.800 292.680 C 380.800 291.944,381.741 290.007,382.100 290.003 C 382.265 290.001,382.400 289.640,382.400 289.200 C 382.400 288.760,382.580 288.400,382.800 288.400 C 383.020 288.400,383.200 287.849,383.200 287.176 C 383.200 286.463,383.367 286.056,383.600 286.200 C 383.820 286.336,384.000 286.077,384.000 285.624 C 384.000 285.171,384.180 284.800,384.400 284.800 C 384.620 284.800,384.800 284.438,384.800 283.995 C 384.800 283.552,384.965 282.877,385.167 282.495 C 386.052 280.821,387.200 277.960,387.200 277.428 C 387.200 277.109,387.380 276.736,387.600 276.600 C 387.820 276.464,388.000 275.913,388.000 275.376 C 388.000 274.839,388.180 274.400,388.400 274.400 C 388.620 274.400,388.800 273.860,388.800 273.200 C 388.800 272.540,388.980 272.000,389.200 272.000 C 389.420 272.000,389.600 271.561,389.600 271.024 C 389.600 270.487,389.789 269.931,390.019 269.788 C 390.250 269.646,390.402 269.230,390.357 268.865 C 390.312 268.499,390.496 267.660,390.767 267.000 C 391.038 266.340,391.362 264.932,391.489 263.872 C 391.638 262.618,391.835 262.129,392.053 262.472 C 392.263 262.804,392.390 262.369,392.394 261.300 C 392.397 260.365,392.580 259.600,392.800 259.600 C 393.020 259.600,393.200 258.981,393.200 258.224 C 393.200 257.467,393.361 256.748,393.558 256.626 C 393.755 256.505,394.025 255.684,394.158 254.803 C 394.291 253.921,394.509 252.480,394.642 251.600 C 394.775 250.720,395.045 250.000,395.242 250.000 C 395.439 250.000,395.600 249.190,395.600 248.200 C 395.600 247.210,395.780 246.400,396.000 246.400 C 396.220 246.400,396.400 245.500,396.400 244.400 C 396.400 243.300,396.580 242.400,396.800 242.400 C 397.020 242.400,397.200 241.421,397.200 240.224 C 397.200 239.027,397.380 237.936,397.600 237.800 C 397.820 237.664,398.000 237.023,398.000 236.376 L 398.000 235.200 363.400 235.200 L 328.800 235.200 328.800 253.740 C 328.800 266.741,328.662 272.687,328.337 273.640 C 324.809 283.993,310.961 284.806,306.489 274.923 C 305.878 273.572,305.777 271.253,305.600 254.400 L 305.400 235.400 287.900 235.296 L 270.400 235.192 270.394 241.696 C 270.383 253.273,266.763 258.400,258.600 258.400 C 250.413 258.400,246.817 253.308,246.806 241.700 L 246.800 235.200 229.200 235.200 L 211.600 235.200 211.600 253.785 C 211.600 271.381,211.557 272.484,210.801 274.505 C 209.927 276.842,207.377 279.716,205.417 280.573 C 202.776 281.729,201.637 282.060,200.738 281.933 L 199.800 281.800 199.698 247.025 C 199.617 219.469,199.700 212.184,200.098 211.931 C 200.374 211.756,245.488 211.609,300.350 211.606 L 400.101 211.600 399.931 195.000 C 399.806 182.810,399.633 178.273,399.280 177.920 C 399.008 177.648,398.800 176.348,398.800 174.920 C 398.800 173.507,398.624 172.400,398.400 172.400 C 398.180 172.400,398.000 171.716,398.000 170.880 C 398.000 170.044,397.830 169.189,397.621 168.980 C 397.413 168.771,397.197 167.823,397.142 166.874 C 397.086 165.925,396.896 165.060,396.720 164.951 C 396.544 164.842,396.400 164.043,396.400 163.176 C 396.400 162.309,396.220 161.600,396.000 161.600 C 395.780 161.600,395.600 161.060,395.600 160.400 C 395.600 159.740,395.420 159.200,395.200 159.200 C 394.980 159.200,394.800 158.581,394.800 157.824 C 394.800 157.067,394.620 156.336,394.400 156.200 C 394.180 156.064,394.000 155.423,394.000 154.776 C 394.000 154.129,393.820 153.600,393.600 153.600 C 393.380 153.600,393.200 153.161,393.200 152.624 C 393.200 152.087,393.056 151.558,392.879 151.449 C 392.703 151.340,392.312 150.347,392.012 149.243 C 391.711 148.139,391.339 147.314,391.185 147.409 C 391.032 147.504,390.919 147.271,390.935 146.891 C 390.975 145.965,389.492 142.000,389.106 142.000 C 388.938 142.000,388.800 141.662,388.800 141.249 C 388.800 140.836,388.532 140.276,388.204 140.004 C 387.877 139.732,387.685 139.385,387.779 139.234 C 387.994 138.886,385.379 133.554,385.120 133.813 C 385.015 133.918,384.691 133.283,384.401 132.402 C 384.110 131.521,383.721 130.800,383.536 130.800 C 383.351 130.800,383.200 130.440,383.200 130.000 C 383.200 129.560,383.020 129.200,382.800 129.200 C 382.580 129.200,382.400 128.975,382.400 128.700 C 382.399 128.425,381.938 127.664,381.375 127.010 C 380.813 126.355,380.072 125.230,379.730 124.510 C 379.389 123.789,378.949 123.200,378.754 123.200 C 378.559 123.200,378.400 122.912,378.400 122.560 C 378.400 122.209,377.860 121.417,377.200 120.800 C 376.540 120.183,376.000 119.391,376.000 119.040 C 376.000 118.688,375.859 118.400,375.686 118.400 C 375.514 118.400,375.051 117.855,374.657 117.189 C 374.264 116.523,373.497 115.533,372.953 114.989 C 372.409 114.445,372.089 114.000,372.243 114.000 C 372.397 114.000,372.090 113.625,371.561 113.166 C 371.033 112.708,370.600 112.187,370.600 112.009 C 370.600 111.831,367.360 108.514,363.400 104.639 C 354.396 95.827,355.018 96.400,354.470 96.400 C 354.215 96.400,353.782 96.040,353.507 95.600 C 353.232 95.160,352.862 94.800,352.684 94.800 C 352.506 94.800,351.716 94.174,350.928 93.409 C 350.140 92.644,349.358 92.103,349.190 92.206 C 349.021 92.310,348.781 92.126,348.654 91.798 C 348.528 91.469,348.149 91.200,347.813 91.200 C 347.476 91.200,347.200 91.020,347.200 90.800 C 347.200 90.580,346.829 90.400,346.376 90.400 C 345.923 90.400,345.664 90.220,345.800 90.000 C 345.936 89.780,345.767 89.600,345.424 89.600 C 345.081 89.600,344.800 89.420,344.800 89.200 C 344.800 88.980,344.519 88.800,344.176 88.800 C 343.833 88.800,343.664 88.620,343.800 88.400 C 343.936 88.180,343.677 88.000,343.224 88.000 C 342.771 88.000,342.400 87.820,342.400 87.600 C 342.400 87.380,342.164 87.200,341.875 87.200 C 341.587 87.200,340.964 86.840,340.492 86.400 C 340.020 85.960,339.345 85.600,338.993 85.600 C 338.641 85.600,338.464 85.420,338.600 85.200 C 338.736 84.980,338.477 84.800,338.024 84.800 C 337.571 84.800,337.200 84.620,337.200 84.400 C 337.200 84.180,336.922 84.000,336.583 84.000 C 336.244 84.000,335.580 83.640,335.108 83.200 C 334.636 82.760,333.938 82.400,333.558 82.400 C 333.178 82.400,332.807 82.265,332.733 82.100 C 332.512 81.601,329.178 80.000,328.362 80.000 C 327.943 80.000,327.600 79.809,327.600 79.576 C 327.600 79.343,327.435 79.255,327.232 79.380 C 327.030 79.505,326.593 79.336,326.261 79.004 C 325.929 78.672,325.307 78.400,324.879 78.400 C 324.451 78.400,323.268 77.935,322.250 77.366 C 321.233 76.797,320.400 76.459,320.400 76.615 C 320.400 76.771,320.138 76.680,319.818 76.415 C 319.497 76.149,319.063 76.038,318.852 76.168 C 318.641 76.298,318.402 76.207,318.322 75.966 C 318.241 75.724,317.686 75.498,317.088 75.463 C 316.490 75.428,316.000 75.265,316.000 75.100 C 316.000 74.935,315.460 74.800,314.800 74.800 C 314.140 74.800,313.600 74.620,313.600 74.400 C 313.600 74.180,313.060 74.000,312.400 74.000 C 311.740 74.000,311.200 73.820,311.200 73.600 C 311.200 73.380,310.491 73.200,309.624 73.200 C 308.757 73.200,307.936 73.020,307.800 72.800 C 307.664 72.580,307.034 72.400,306.400 72.400 C 305.766 72.400,305.136 72.220,305.000 72.000 C 304.864 71.780,303.853 71.600,302.753 71.600 C 301.521 71.600,300.848 71.446,301.000 71.200 C 301.152 70.953,300.471 70.800,299.224 70.800 C 298.111 70.800,297.200 70.620,297.200 70.400 C 297.200 70.169,295.925 70.000,294.176 70.000 C 292.263 70.000,291.244 69.853,291.400 69.600 C 291.670 69.164,290.624 69.166,275.600 69.642 M215.404 153.018 C 222.565 155.100,226.022 162.899,222.677 169.425 C 221.622 171.484,207.582 185.786,205.600 186.822 C 204.313 187.494,200.749 188.325,200.100 188.104 C 199.713 187.972,199.600 184.822,199.600 174.164 L 199.600 160.394 202.442 157.585 C 207.304 152.782,210.598 151.621,215.404 153.018 " stroke="none" fill="#f94170" fill-rule="evenodd"></path><path id="path2" d="M108.588 69.619 C 108.459 69.829,107.103 70.000,105.576 70.000 C 103.992 70.000,102.800 70.172,102.800 70.400 C 102.800 70.620,101.911 70.800,100.824 70.800 C 99.737 70.800,98.736 70.980,98.600 71.200 C 98.464 71.420,97.654 71.600,96.800 71.600 C 95.946 71.600,95.136 71.780,95.000 72.000 C 94.864 72.220,94.133 72.400,93.376 72.400 C 92.619 72.400,92.000 72.580,92.000 72.800 C 92.000 73.020,91.280 73.200,90.400 73.200 C 89.520 73.200,88.800 73.380,88.800 73.600 C 88.800 73.820,88.260 74.000,87.600 74.000 C 86.940 74.000,86.400 74.180,86.400 74.400 C 86.400 74.620,85.972 74.800,85.449 74.800 C 84.926 74.800,83.871 75.062,83.105 75.382 C 82.338 75.702,81.248 76.048,80.682 76.151 C 79.712 76.327,77.454 77.217,75.905 78.034 C 75.523 78.235,74.938 78.400,74.605 78.400 C 74.272 78.400,74.000 78.580,74.000 78.800 C 74.000 79.020,73.743 79.200,73.429 79.200 C 73.116 79.200,71.361 79.936,69.529 80.836 C 67.698 81.735,65.795 82.665,65.300 82.903 C 64.805 83.141,64.400 83.485,64.400 83.668 C 64.400 83.850,64.040 84.000,63.600 84.000 C 63.160 84.000,62.800 84.180,62.800 84.400 C 62.800 84.620,62.440 84.800,62.000 84.800 C 61.560 84.800,61.200 84.980,61.200 85.200 C 61.200 85.420,60.930 85.600,60.600 85.600 C 60.270 85.600,60.000 85.780,60.000 86.000 C 60.000 86.220,59.730 86.400,59.400 86.400 C 59.070 86.400,58.800 86.580,58.800 86.800 C 58.800 87.020,58.545 87.200,58.233 87.200 C 57.922 87.200,57.607 87.367,57.533 87.570 C 57.460 87.774,57.130 87.999,56.800 88.070 C 56.470 88.142,55.909 88.515,55.553 88.900 C 55.197 89.285,54.602 89.600,54.229 89.600 C 53.857 89.600,53.664 89.780,53.800 90.000 C 53.936 90.220,53.767 90.400,53.424 90.400 C 53.081 90.400,52.800 90.580,52.800 90.800 C 52.800 91.020,52.607 91.200,52.372 91.200 C 51.814 91.200,47.344 94.393,45.693 95.971 C 44.986 96.647,44.307 97.200,44.184 97.200 C 44.062 97.200,42.719 98.460,41.200 100.000 C 39.681 101.540,38.271 102.800,38.065 102.800 C 37.860 102.800,37.370 103.291,36.976 103.892 C 36.583 104.493,34.672 106.533,32.730 108.425 C 30.789 110.318,29.200 112.066,29.200 112.310 C 29.200 112.555,28.880 112.990,28.489 113.277 C 28.099 113.565,27.067 114.790,26.196 116.000 C 25.326 117.210,24.476 118.260,24.307 118.333 C 24.138 118.407,24.000 118.772,24.000 119.145 C 24.000 119.518,23.640 120.083,23.200 120.400 C 22.760 120.717,22.400 121.162,22.399 121.388 C 22.399 121.615,21.859 122.430,21.200 123.200 C 20.541 123.970,20.001 124.825,20.001 125.100 C 20.000 125.375,19.820 125.600,19.600 125.600 C 19.380 125.600,19.200 125.870,19.200 126.200 C 19.200 126.530,19.054 126.800,18.875 126.800 C 18.696 126.800,18.302 127.430,18.000 128.200 C 17.698 128.970,17.304 129.600,17.125 129.600 C 16.946 129.600,16.800 129.797,16.800 130.038 C 16.800 130.279,16.461 130.954,16.047 131.538 C 14.799 133.298,13.600 135.588,13.600 136.212 C 13.600 136.535,13.420 136.800,13.200 136.800 C 12.980 136.800,12.800 137.160,12.800 137.600 C 12.800 138.040,12.656 138.400,12.480 138.400 C 12.305 138.400,11.929 139.075,11.645 139.900 C 11.361 140.725,10.583 142.558,9.917 143.974 C 9.250 145.390,8.612 147.232,8.500 148.066 C 8.388 148.901,8.140 149.487,7.948 149.368 C 7.757 149.250,7.600 149.613,7.600 150.176 C 7.600 150.739,7.420 151.200,7.200 151.200 C 6.980 151.200,6.800 151.740,6.800 152.400 C 6.800 153.060,6.620 153.600,6.400 153.600 C 6.180 153.600,6.000 154.140,6.000 154.800 C 6.000 155.460,5.820 156.000,5.600 156.000 C 5.380 156.000,5.200 156.720,5.200 157.600 C 5.200 158.480,5.020 159.200,4.800 159.200 C 4.580 159.200,4.400 159.740,4.400 160.400 C 4.400 161.060,4.220 161.600,4.000 161.600 C 3.780 161.600,3.600 162.410,3.600 163.400 C 3.600 164.390,3.420 165.200,3.200 165.200 C 2.980 165.200,2.800 165.920,2.800 166.800 C 2.800 167.680,2.620 168.400,2.400 168.400 C 2.180 168.400,2.000 169.300,2.000 170.400 C 2.000 171.500,1.820 172.400,1.600 172.400 C 1.375 172.400,1.200 173.522,1.200 174.967 C 1.200 176.590,1.026 177.591,0.726 177.691 C 0.374 177.809,0.206 182.207,0.074 194.725 L -0.104 211.600 99.948 211.600 L 200.000 211.600 200.000 200.000 L 200.000 188.400 198.811 188.400 C 195.239 188.400,179.851 175.149,177.272 169.852 C 175.553 166.321,175.221 164.091,176.040 161.560 C 179.298 151.479,189.657 149.223,197.186 156.955 C 198.389 158.190,199.514 159.200,199.686 159.200 C 199.859 159.200,199.999 144.125,199.997 125.700 L 199.995 92.200 198.697 91.449 C 197.984 91.036,196.860 90.386,196.200 90.006 C 195.540 89.625,194.190 88.838,193.200 88.258 C 178.887 79.871,160.332 73.437,143.000 70.850 C 135.193 69.685,109.124 68.753,108.588 69.619 M2.000 236.574 C 2.000 237.332,2.180 238.064,2.400 238.200 C 2.620 238.336,2.800 239.337,2.800 240.424 C 2.800 241.511,2.980 242.400,3.200 242.400 C 3.420 242.400,3.600 243.300,3.600 244.400 C 3.600 245.500,3.780 246.400,4.000 246.400 C 4.220 246.400,4.400 247.109,4.400 247.976 C 4.400 248.843,4.580 249.664,4.800 249.800 C 5.020 249.936,5.200 250.746,5.200 251.600 C 5.200 252.454,5.380 253.264,5.600 253.400 C 5.820 253.536,6.000 254.256,6.000 255.000 C 6.000 255.744,6.180 256.464,6.400 256.600 C 6.620 256.736,6.800 257.467,6.800 258.224 C 6.800 258.981,6.980 259.600,7.200 259.600 C 7.420 259.600,7.600 260.219,7.600 260.976 C 7.600 261.733,7.780 262.464,8.000 262.600 C 8.220 262.736,8.400 263.347,8.400 263.957 C 8.400 264.567,8.535 265.202,8.700 265.367 C 8.865 265.532,9.015 265.787,9.033 265.933 C 9.051 266.080,9.196 266.661,9.357 267.224 C 9.517 267.786,9.692 268.546,9.746 268.912 C 9.800 269.278,9.969 269.702,10.122 269.855 C 10.275 270.008,10.400 270.430,10.400 270.792 C 10.400 271.154,10.760 272.195,11.200 273.106 C 11.640 274.016,12.000 275.119,12.000 275.557 C 12.000 275.995,12.180 276.464,12.400 276.600 C 12.620 276.736,12.800 277.197,12.800 277.624 C 12.800 278.051,12.980 278.400,13.200 278.400 C 13.420 278.400,13.600 278.940,13.600 279.600 C 13.600 280.260,13.780 280.800,14.000 280.800 C 14.220 280.800,14.400 281.072,14.400 281.405 C 14.400 281.738,14.557 282.323,14.750 282.705 C 16.248 285.680,16.800 286.953,16.800 287.438 C 16.800 287.747,16.980 288.000,17.200 288.000 C 17.420 288.000,17.600 288.349,17.600 288.776 C 17.600 289.203,17.780 289.664,18.000 289.800 C 18.220 289.936,18.400 290.397,18.400 290.824 C 18.400 291.251,18.580 291.600,18.800 291.600 C 19.020 291.600,19.200 291.960,19.200 292.400 C 19.200 292.840,19.380 293.200,19.600 293.200 C 19.820 293.200,20.000 293.560,20.000 294.000 C 20.000 294.440,20.180 294.800,20.400 294.800 C 20.620 294.800,20.800 295.160,20.800 295.600 C 20.800 296.040,20.980 296.400,21.200 296.400 C 21.420 296.400,21.600 296.760,21.600 297.200 C 21.600 297.640,21.780 298.000,22.000 298.000 C 22.220 298.000,22.400 298.360,22.400 298.800 C 22.400 299.240,22.580 299.600,22.800 299.600 C 23.020 299.600,23.200 299.960,23.200 300.400 C 23.200 300.840,23.346 301.200,23.525 301.200 C 23.704 301.200,24.098 301.830,24.400 302.600 C 24.702 303.370,25.075 304.000,25.228 304.000 C 25.488 304.000,25.918 305.139,25.836 305.610 C 25.816 305.725,26.205 306.334,26.700 306.964 C 27.195 307.593,27.600 308.320,27.600 308.579 C 27.600 308.837,27.956 309.431,28.391 309.899 C 28.827 310.366,29.232 310.978,29.291 311.258 C 29.351 311.539,29.715 312.125,30.100 312.560 C 30.485 312.995,30.800 313.587,30.800 313.875 C 30.800 314.164,30.980 314.400,31.200 314.400 C 31.420 314.400,31.600 314.670,31.600 315.000 C 31.600 315.330,31.780 315.600,32.000 315.600 C 32.220 315.600,32.400 315.870,32.400 316.200 C 32.400 316.530,32.580 316.800,32.800 316.800 C 33.020 316.800,33.201 317.025,33.202 317.300 C 33.203 317.575,33.743 318.375,34.402 319.078 C 35.061 319.781,35.600 320.597,35.600 320.890 C 35.600 321.183,35.960 321.683,36.400 322.000 C 36.840 322.317,37.200 322.719,37.200 322.892 C 37.200 323.065,37.740 323.772,38.400 324.463 C 39.060 325.154,39.600 325.890,39.600 326.099 C 39.600 326.308,40.140 326.983,40.800 327.600 C 41.460 328.217,42.000 328.874,42.000 329.060 C 42.001 329.400,43.241 331.016,44.782 332.686 C 45.232 333.173,45.600 333.725,45.600 333.913 C 45.600 334.100,46.905 335.602,48.500 337.249 C 50.095 338.896,53.252 342.169,55.515 344.522 C 57.778 346.875,59.730 348.800,59.852 348.800 C 59.974 348.800,61.201 349.925,62.579 351.300 C 63.956 352.675,65.673 354.250,66.395 354.800 C 67.628 355.740,68.034 356.075,70.303 358.024 C 70.800 358.451,71.358 358.800,71.544 358.800 C 71.729 358.800,72.446 359.340,73.137 360.000 C 73.828 360.660,74.573 361.200,74.793 361.200 C 75.013 361.200,75.709 361.740,76.340 362.400 C 76.971 363.060,77.652 363.600,77.855 363.600 C 78.058 363.600,78.483 363.960,78.800 364.400 C 79.117 364.840,79.617 365.200,79.910 365.200 C 80.203 365.200,81.019 365.739,81.722 366.398 C 82.425 367.057,83.225 367.597,83.500 367.598 C 83.775 367.599,84.000 367.750,84.000 367.932 C 84.000 368.115,84.495 368.517,85.100 368.825 C 86.192 369.381,87.895 370.383,90.200 371.827 C 90.860 372.240,91.535 372.538,91.700 372.489 C 91.865 372.440,92.000 372.554,92.000 372.743 C 92.000 373.168,95.855 375.200,96.661 375.200 C 96.983 375.200,97.136 375.380,97.000 375.600 C 96.864 375.820,97.033 376.000,97.376 376.000 C 97.719 376.000,98.000 376.180,98.000 376.400 C 98.000 376.620,98.360 376.800,98.800 376.800 C 99.240 376.800,99.600 376.980,99.600 377.200 C 99.600 377.420,99.960 377.600,100.400 377.600 C 100.840 377.600,101.200 377.780,101.200 378.000 C 101.200 378.220,101.560 378.400,102.000 378.400 C 102.440 378.400,102.800 378.580,102.800 378.800 C 102.800 379.020,103.160 379.200,103.600 379.200 C 104.040 379.200,104.400 379.380,104.400 379.600 C 104.400 379.820,104.760 380.000,105.200 380.000 C 105.640 380.000,106.000 380.180,106.000 380.400 C 106.000 380.620,106.360 380.800,106.800 380.800 C 107.240 380.800,107.600 380.980,107.600 381.200 C 107.600 381.420,107.960 381.600,108.400 381.600 C 108.840 381.600,109.200 381.780,109.200 382.000 C 109.200 382.220,109.650 382.400,110.200 382.400 C 110.750 382.400,111.200 382.580,111.200 382.800 C 111.200 383.020,111.560 383.200,112.000 383.200 C 112.440 383.200,112.800 383.380,112.800 383.600 C 112.800 383.820,113.250 384.000,113.800 384.000 C 114.350 384.000,114.800 384.180,114.800 384.400 C 114.800 384.620,115.149 384.800,115.576 384.800 C 116.003 384.800,116.464 384.980,116.600 385.200 C 116.736 385.420,117.197 385.600,117.624 385.600 C 118.051 385.600,118.400 385.741,118.400 385.913 C 118.400 386.085,118.839 386.262,119.376 386.306 C 119.913 386.351,120.999 386.750,121.789 387.194 C 122.578 387.637,123.579 388.000,124.012 388.000 C 124.445 388.000,124.800 388.180,124.800 388.400 C 124.800 388.620,125.340 388.800,126.000 388.800 C 126.660 388.800,127.200 389.010,127.200 389.267 C 127.200 389.523,127.313 389.620,127.451 389.483 C 127.589 389.345,128.309 389.485,129.051 389.795 C 129.793 390.106,130.400 390.288,130.400 390.200 C 130.400 390.112,130.985 390.278,131.700 390.568 C 132.415 390.859,133.225 391.014,133.500 390.915 C 133.775 390.815,134.000 390.928,134.000 391.167 C 134.000 391.406,134.718 391.600,135.600 391.600 C 136.480 391.600,137.200 391.780,137.200 392.000 C 137.200 392.220,137.740 392.400,138.400 392.400 C 139.060 392.400,139.600 392.580,139.600 392.800 C 139.600 393.020,140.320 393.200,141.200 393.200 C 142.080 393.200,142.800 393.380,142.800 393.600 C 142.800 393.820,143.531 394.000,144.424 394.000 C 145.404 394.000,145.949 394.158,145.800 394.400 C 145.649 394.645,146.270 394.800,147.400 394.800 C 148.530 394.800,149.151 394.955,149.000 395.200 C 148.848 395.446,149.521 395.600,150.753 395.600 C 151.853 395.600,152.864 395.780,153.000 396.000 C 153.136 396.220,154.036 396.400,155.000 396.400 C 155.964 396.400,156.864 396.580,157.000 396.800 C 157.136 397.020,158.036 397.200,159.000 397.200 C 159.964 397.200,160.864 397.380,161.000 397.600 C 161.136 397.820,162.306 398.000,163.600 398.000 C 164.894 398.000,166.064 398.180,166.200 398.400 C 166.336 398.620,167.862 398.800,169.590 398.800 C 171.463 398.800,172.791 398.973,172.876 399.227 C 172.971 399.513,177.498 399.733,186.510 399.890 L 200.003 400.125 199.901 341.163 L 199.800 282.200 198.200 281.985 C 194.452 281.482,190.807 278.639,189.055 274.849 C 188.226 273.055,188.197 272.435,188.085 254.096 L 187.970 235.191 170.885 235.296 L 153.800 235.400 153.586 242.800 C 153.262 253.964,149.650 258.819,141.685 258.794 C 133.592 258.768,129.600 252.972,129.600 241.249 L 129.600 235.191 112.500 235.296 L 95.400 235.400 95.200 254.200 C 95.003 272.761,94.988 273.025,94.080 275.000 C 89.793 284.322,76.544 284.378,72.345 275.091 C 71.405 273.011,71.399 272.901,71.200 254.200 L 71.000 235.400 36.500 235.298 L 2.000 235.196 2.000 236.574 " stroke="none" fill="#fc637b" fill-rule="evenodd"></path><path id="path3" d="M362.000 102.925 C 362.000 102.994,362.585 103.579,363.300 104.225 L 364.600 105.400 363.425 104.100 C 362.330 102.888,362.000 102.616,362.000 102.925 M209.200 152.949 C 206.725 153.770,205.345 154.717,202.442 157.585 L 199.600 160.394 199.600 174.164 C 199.600 189.517,199.389 188.556,202.600 187.809 C 205.716 187.085,206.134 186.760,214.132 178.850 C 222.353 170.720,223.545 169.047,223.898 165.148 C 224.616 157.231,216.527 150.517,209.200 152.949 M200.098 211.931 C 199.700 212.184,199.617 219.469,199.698 247.025 L 199.800 281.800 200.738 281.933 C 201.637 282.060,202.776 281.729,205.417 280.573 C 207.377 279.716,209.927 276.842,210.801 274.505 C 211.557 272.484,211.600 271.381,211.600 253.785 L 211.600 235.200 229.200 235.200 L 246.800 235.200 246.806 241.700 C 246.817 253.308,250.413 258.400,258.600 258.400 C 266.763 258.400,270.383 253.273,270.394 241.696 L 270.400 235.192 287.900 235.296 L 305.400 235.400 305.600 254.400 C 305.777 271.253,305.878 273.572,306.489 274.923 C 310.961 284.806,324.809 283.993,328.337 273.640 C 328.662 272.687,328.800 266.741,328.800 253.740 L 328.800 235.200 363.400 235.200 L 398.000 235.200 398.000 233.976 C 398.000 233.263,398.167 232.856,398.400 233.000 C 398.652 233.156,398.800 232.231,398.800 230.504 C 398.800 228.995,398.961 227.589,399.157 227.380 C 399.353 227.171,399.641 223.535,399.797 219.300 L 400.081 211.600 300.341 211.606 C 245.483 211.609,200.374 211.756,200.098 211.931 M0.086 217.959 C 0.106 218.642,0.281 219.200,0.475 219.200 C 0.669 219.200,0.768 218.757,0.695 218.215 C 0.497 216.731,0.046 216.542,0.086 217.959 " stroke="none" fill="#d3244c" fill-rule="evenodd"></path><path id="path4" d="M119.000 69.216 C 115.979 69.389,117.105 69.463,123.600 69.519 C 137.622 69.639,146.902 70.911,160.600 74.593 C 170.147 77.159,184.591 83.214,193.200 88.258 C 194.190 88.838,195.540 89.625,196.200 90.006 C 196.860 90.386,197.966 91.028,198.658 91.432 C 200.115 92.283,200.105 92.286,205.600 88.948 C 216.696 82.208,234.637 75.080,246.200 72.816 C 247.080 72.644,249.150 72.230,250.800 71.896 C 259.233 70.187,265.350 69.608,275.645 69.544 C 284.082 69.492,284.357 69.468,280.400 69.121 C 274.457 68.600,261.940 69.366,253.600 70.762 C 249.671 71.419,244.589 72.509,242.200 73.207 C 241.320 73.464,240.013 73.768,239.296 73.881 C 238.579 73.995,237.894 74.249,237.773 74.444 C 237.652 74.640,237.124 74.800,236.600 74.800 C 236.076 74.800,235.536 74.980,235.400 75.200 C 235.264 75.420,234.724 75.600,234.200 75.600 C 233.676 75.600,233.136 75.780,233.000 76.000 C 232.864 76.220,232.324 76.400,231.800 76.400 C 231.276 76.400,230.736 76.580,230.600 76.800 C 230.464 77.020,230.001 77.200,229.571 77.200 C 229.141 77.200,228.477 77.359,228.095 77.553 C 227.713 77.748,226.905 78.108,226.300 78.353 C 225.695 78.599,224.795 78.966,224.300 79.169 C 223.805 79.372,222.590 79.864,221.600 80.262 C 219.125 81.258,208.645 86.530,206.200 88.009 C 205.100 88.674,203.930 89.336,203.600 89.480 C 203.270 89.624,202.910 89.852,202.800 89.988 C 201.397 91.714,198.521 91.388,195.800 89.194 C 194.543 88.180,179.357 80.400,178.636 80.400 C 178.501 80.400,177.538 80.022,176.496 79.560 C 173.644 78.297,173.139 78.097,171.400 77.545 C 170.520 77.265,169.629 76.893,169.420 76.718 C 169.211 76.543,168.637 76.400,168.144 76.400 C 167.651 76.400,167.136 76.220,167.000 76.000 C 166.864 75.780,166.401 75.600,165.971 75.600 C 165.541 75.600,164.877 75.442,164.495 75.249 C 163.339 74.665,160.996 74.000,160.095 74.000 C 159.629 74.000,159.148 73.840,159.027 73.644 C 158.906 73.449,158.221 73.188,157.504 73.066 C 156.787 72.944,155.345 72.654,154.300 72.422 C 144.218 70.182,137.897 69.426,126.400 69.088 C 124.530 69.033,121.200 69.091,119.000 69.216 " stroke="none" fill="#5c9498" fill-rule="evenodd"></path></g></svg>